#!OML:ASF H:\LiuWeirdWalks\Patient Classification 1\Patient 1\Session 1\male.ASF
:FULLY-SPECIFIED
:DEGREES
221
root 1.02615 17.633 -14.281 5.78576 1.83819 10.9548
lowerback 8.15183 0.107683 -11.8871
upperback -1.12798 -1.13152 -1.20637
thorax -5.61063 -0.198465 5.54605
lowerneck -22.1823 1.15982 7.19381
upperneck 21.7004 1.05082 -7.24851
head 10.7272 0.171515 -3.66893
rclavicle 1.92821e-014 -1.35174e-014
rhumerus -45.3396 -9.21262 -73.7189
rradius 21.8784
rwrist -0.752135
rhand -15.2532 -3.58573
rfingers 7.12502
rthumb 10.9206 -33.2817
lclavicle 1.92821e-014 -1.35174e-014
lhumerus -31.2115 0.147234 83.82
lradius 26.6647
lwrist 13.0811
lhand -15.3844 1.52002
lfingers 7.12502
lthumb 10.7939 31.2227
rfemur -40.9254 -10.4584 9.32827
rtibia 58.2024
rfoot -14.4113 -23.6988
rtoes -4.53784
lfemur -4.53252 -1.40232 -34.1936
ltibia 22.7202
lfoot -15.8362 16.2903
ltoes -8.13673
222
root 1.033 17.6276 -14.0428 5.79309 1.93723 11.1115
lowerback 8.04708 -0.0331765 -12.1143
upperback -1.17817 -1.32971 -1.19475
thorax -5.56534 -0.288987 5.70764
lowerneck -20.1164 0.867561 6.71523
upperneck 20.8557 0.771241 -6.73664
head 10.0094 0.0902493 -3.39632
rclavicle 2.16675e-014 -6.36111e-015
rhumerus -45.9876 -9.87898 -72.7511
rradius 21.3515
rwrist 0.190817
rhand -15.0862 -3.63708
rfingers 7.12502
rthumb 11.0816 -33.3245
lclavicle 2.16675e-014 -6.36111e-015
lhumerus -30.2226 -0.189061 83.7903
lradius 27.5706
lwrist 14.063
lhand -15.4599 1.56198
lfingers 7.12502
lthumb 10.7212 31.2684
rfemur -41.7979 -10.3725 9.32959
rtibia 55.4137
rfoot -13.1608 -23.6082
rtoes -4.70428
lfemur -2.82036 -1.27828 -34.3453
ltibia 21.0801
lfoot -15.5111 16.0696
ltoes -8.17462
223
root 1.03858 17.6207 -13.8044 5.81984 2.09404 11.2629
lowerback 7.96192 -0.188122 -12.3358
upperback -1.2364 -1.54898 -1.17849
thorax -5.53428 -0.388805 5.87314
lowerneck -18.0058 0.562396 6.22397
upperneck 20.065 0.4665 -6.21481
head 9.3163 -0.00575564 -3.12888
rclavicle 4.47266e-015 -5.56597e-015
rhumerus -46.6544 -10.5872 -71.7115
rradius 20.8482
rwrist 1.13174
rhand -14.9571 -3.69452
rfingers 7.12502
rthumb 11.2061 -33.3752
lclavicle 4.47266e-015 -5.56597e-015
lhumerus -29.2541 -0.492926 83.7296
lradius 28.5198
lwrist 15.0561
lhand -15.5554 1.65102
lfingers 7.12502
lthumb 10.629 31.3622
rfemur -42.5489 -10.3092 9.30287
rtibia 52.5005
rfoot -11.7777 -23.3472
rtoes -5.03104
lfemur -1.04773 -1.13967 -34.4606
ltibia 19.2871
lfoot -15.101 15.7269
ltoes -8.27061
224
root 1.04294 17.6121 -13.5651 5.85716 2.31444 11.4002
lowerback 7.87715 -0.357263 -12.5382
upperback -1.29139 -1.7845 -1.15905
thorax -5.49525 -0.497797 6.03242
lowerneck -16.3015 0.300438 5.82132
upperneck 19.498 0.191128 -5.78677
head 8.78988 -0.099953 -2.91826
rclavicle -1.70955e-014 -1.74931e-014
rhumerus -47.3468 -11.3597 -70.5854
rradius 20.3488
rwrist 2.11858
rhand -14.8993 -3.68081
rfingers 7.12502
rthumb 11.2619 -33.3585
lclavicle -1.70955e-014 -1.74931e-014
lhumerus -28.2998 -0.785066 83.6444
lradius 29.4961
lwrist 16.0297
lhand -15.7024 1.72059
lfingers 7.12502
lthumb 10.4872 31.439
rfemur -43.1659 -10.2489 9.24537
rtibia 49.5112
rfoot -10.4671 -22.9513
rtoes -5.55339
lfemur 0.796716 -1.00119 -34.5291
ltibia 17.3461
lfoot -14.61 15.2781
ltoes -8.48636
225
root 1.04607 17.6015 -13.3253 5.90305 2.59216 11.4941
lowerback 7.8006 -0.538815 -12.6967
upperback -1.34104 -2.0319 -1.12488
thorax -5.45148 -0.614364 6.18351
lowerneck -15.2461 0.145794 5.58077
upperneck 19.207 0.0249461 -5.51708
head 8.48887 -0.156666 -2.7894
rclavicle -1.56046e-014 -2.34566e-014
rhumerus -48.0584 -12.1608 -69.4001
rradius 19.8844
rwrist 3.07309
rhand -14.9045 -3.63989
rfingers 7.12502
rthumb 11.2569 -33.3178
lclavicle -1.56046e-014 -2.34566e-014
lhumerus -27.3562 -1.05414 83.5386
lradius 30.4869
lwrist 16.9647
lhand -15.8828 1.73782
lfingers 7.12502
lthumb 10.3132 31.465
rfemur -43.6483 -10.1527 9.17289
rtibia 46.5016
rfoot -9.43809 -22.4859
rtoes -6.26741
lfemur 2.70875 -0.869307 -34.52
ltibia 15.2658
lfoot -14.0389 14.7377
ltoes -8.87282
226
root 1.04755 17.5891 -13.0846 5.9522 2.9458 11.514
lowerback 7.74143 -0.74043 -12.7827
upperback -1.39232 -2.30014 -1.06528
thorax -5.41444 -0.742656 6.32339
lowerneck -14.7111 0.0860111 5.48891
upperneck 19.0832 -0.0380422 -5.39693
head 8.34654 -0.175401 -2.73303
rclavicle 5.1684e-015 -1.63003e-014
rhumerus -48.7943 -13.0018 -68.1286
rradius 19.4173
rwrist 4.01717
rhand -14.9847 -3.56877
rfingers 7.12502
rthumb 11.1796 -33.2509
lclavicle 5.1684e-015 -1.63003e-014
lhumerus -26.4366 -1.28985 83.4135
lradius 31.4648
lwrist 17.8231
lhand -16.1097 1.5867
lfingers 7.12502
lthumb 10.0943 31.3246
rfemur -43.9803 -9.97864 9.08846
rtibia 43.5341
rfoot -8.87784 -22.0769
rtoes -7.16081
lfemur 4.69575 -0.767739 -34.3962
ltibia 13.0419
lfoot -13.3702 14.1159
ltoes -9.46395
227
root 1.04765 17.5746 -12.8433 6.00583 3.34674 11.4601
lowerback 7.69081 -0.951436 -12.8043
upperback -1.44197 -2.57412 -0.975549
thorax -5.37857 -0.87544 6.45962
lowerneck -14.7573 0.13461 5.55182
upperneck 19.0996 0.0228171 -5.44794
head 8.36402 -0.147877 -2.7548
rclavicle 1.39646e-014 -3.89618e-014
rhumerus -49.5424 -13.921 -66.7303
rradius 18.9386
rwrist 4.976
rhand -15.0994 -3.51797
rfingers 7.12502
rthumb 11.0688 -33.2061
lclavicle 1.39646e-014 -3.89618e-014
lhumerus -25.5404 -1.50217 83.2827
lradius 32.4366
lwrist 18.6007
lhand -16.3627 1.32801
lfingers 7.12502
lthumb 9.85024 31.0776
rfemur -44.18 -9.67921 8.96495
rtibia 40.6801
rfoot -8.84916 -21.8177
rtoes -8.18667
lfemur 6.76806 -0.671252 -34.1634
ltibia 10.6426
lfoot -12.5876 13.4173
ltoes -10.2741
